<?xml version="1.0" encoding="UTF-8"?>
<svg width="443px" height="555px" viewBox="0 0 443 555" version="1.1" xmlns="http://www.w3.org/2000/svg" xmlns:xlink="http://www.w3.org/1999/xlink">
    <!-- Generator: Sketch 51.3 (57544) - http://www.bohemiancoding.com/sketch -->
    <title>Group</title>
    <desc>Created with Sketch.</desc>
    <defs></defs>
    <g id="Page-1" stroke="none" stroke-width="1" fill="none" fill-rule="evenodd">
        <g id="Group" fill-rule="nonzero">
            <g id="one-finger" fill="#000000">
                <path d="M98.142,86.062 C98.142,49.725 128.742,19.124 165.08,19.124 C201.418,19.124 232.017,49.724 232.017,86.062 L232.017,139.612 C243.493,124.312 251.142,105.187 251.142,86.062 C251.141,38.25 212.891,0 165.079,0 C117.267,0 79.017,38.25 79.017,86.062 C79.017,107.1 86.667,126.225 98.142,139.612 L98.142,86.062 Z" id="Shape"></path>
                <path d="M394.579,229.5 C383.104,229.5 373.542,233.325 365.891,239.062 C365.891,212.287 344.854,191.25 318.079,191.25 C306.604,191.25 295.13,195.075 285.567,202.725 C277.917,183.6 260.704,172.125 241.579,172.125 C230.104,172.125 220.542,175.95 212.891,181.687 L212.891,86.062 C212.891,59.287 191.854,38.25 165.079,38.25 C138.304,38.25 117.267,59.288 117.267,86.062 L117.267,256.274 C79.017,221.849 36.942,195.074 10.167,221.849 C-28.083,260.099 52.242,334.686 113.442,447.524 C157.43,525.936 218.63,554.624 279.829,554.624 C369.717,554.624 442.391,481.949 442.391,392.062 L442.391,277.312 C442.391,250.538 421.354,229.5 394.579,229.5 Z" id="Shape"></path>
            </g>
            <path d="M423.266,392.063 C423.266,466.651 358.242,535.501 279.828,535.501 C207.153,535.501 165.078,495.339 130.653,439.876 C57.978,313.651 4.428,256.276 23.553,235.238 C44.59,214.201 96.228,260.101 136.39,302.176 L136.39,86.062 C136.39,70.762 149.777,57.374 165.078,57.374 C180.378,57.374 193.766,70.762 193.766,86.062 L193.766,286.874 L212.891,286.874 L212.891,219.936 C212.891,204.636 226.279,191.248 241.579,191.248 C256.88,191.248 270.267,204.636 270.267,219.936 L270.267,267.748 L289.392,267.748 L289.392,239.06 C289.392,223.76 302.78,210.372 318.08,210.372 C333.381,210.372 346.768,223.76 346.768,239.06 L346.768,286.872 L365.893,286.872 L365.893,277.31 C365.893,262.01 379.281,248.622 394.581,248.622 C409.882,248.622 423.269,262.01 423.269,277.31 L423.269,319.388 L423.266,392.063 Z" id="Path" fill="#FFFFFF"></path>
        </g>
    </g>
</svg>