





<svg version="1.1" xmlns="http://www.w3.org/2000/svg" xmlns:xlink="http://www.w3.org/1999/xlink">
    <g id="Page-1" stroke="none" stroke-width="1" fill="none" fill-rule="evenodd">
        <g id="message" fill="#000000" fill-rule="nonzero">
            <path d="M56.31,21.076 L47.651,21.076 L47.651,5.522 C47.651,2.483 45.167,0 42.13,0 L5.683,0 C2.644,0 0.162,2.483 0.162,5.522 L0.162,76.229 C0.162,79.267 2.645,81.751 5.683,81.751 L42.13,81.751 C45.166,81.751 47.651,79.267 47.651,76.229 L47.651,58.475 L56.31,58.475 C59.222,58.475 61.59,56.123 61.59,53.231 L61.59,26.32 C61.59,23.431 59.222,21.076 56.31,21.076 Z M18.075,3.98 L29.736,3.98 C30.104,3.98 30.406,4.279 30.406,4.648 C30.406,5.014 30.104,5.315 29.736,5.315 L18.075,5.315 C17.706,5.315 17.408,5.014 17.408,4.648 C17.408,4.279 17.706,3.98 18.075,3.98 Z M23.905,78.994 C22.383,78.994 21.144,77.758 21.144,76.229 C21.144,74.705 22.38,73.468 23.905,73.468 C25.43,73.468 26.669,74.704 26.669,76.229 C26.668,77.757 25.43,78.994 23.905,78.994 Z M43.807,71.535 L4.001,71.535 L4.001,8.757 L43.807,8.757 L43.807,21.076 L21.052,21.076 C18.143,21.076 15.776,23.431 15.776,26.323 L15.776,53.234 C15.776,56.125 18.143,58.478 21.052,58.478 L24.241,58.478 L24.241,67.493 L33.257,58.478 L43.807,58.478 L43.807,71.535 Z M59.254,53.233 C59.254,54.837 57.936,56.141 56.31,56.141 L32.292,56.141 L26.579,61.853 L26.579,56.141 L21.052,56.141 C19.431,56.141 18.112,54.836 18.112,53.233 L18.112,26.322 C18.112,24.717 19.429,23.411 21.052,23.411 L56.31,23.411 C57.931,23.411 59.254,24.717 59.254,26.322 L59.254,53.233 Z M53.413,31.75 C53.413,32.549 52.807,33.194 52.06,33.194 L25.374,33.194 C24.629,33.194 24.021,32.549 24.021,31.75 C24.021,30.956 24.629,30.307 25.374,30.307 L52.06,30.307 C52.806,30.307 53.413,30.956 53.413,31.75 Z M53.413,39.58 C53.413,40.38 52.807,41.027 52.06,41.027 L25.374,41.027 C24.629,41.027 24.021,40.38 24.021,39.58 C24.021,38.787 24.629,38.14 25.374,38.14 L52.06,38.14 C52.806,38.139 53.413,38.786 53.413,39.58 Z M53.413,47.41 C53.413,48.208 52.807,48.856 52.06,48.856 L25.374,48.856 C24.629,48.856 24.021,48.208 24.021,47.41 C24.021,46.614 24.629,45.969 25.374,45.969 L52.06,45.969 C52.806,45.968 53.413,46.616 53.413,47.41 Z" id="Shape"></path>
        </g>
    </g>
</svg>